<svg width="2317" height="624" viewBox="0 0 2317 624" fill="none" xmlns="http://www.w3.org/2000/svg">
<rect x="26" y="62" width="68" height="500" fill="#00294E"/>
<rect x="183" y="162" width="15" height="110" fill="#00294E"/>
<rect x="153" y="208" width="15" height="75" transform="rotate(-90 153 208)" fill="#00294E"/>
<rect x="26" y="130" width="68" height="288" transform="rotate(-90 26 130)" fill="#00294E"/>
<rect x="26" y="355" width="68" height="288" transform="rotate(-90 26 355)" fill="#00294E"/>
<rect x="699" y="62" width="68" height="500" fill="#AD7727"/>
<path d="M699 562.001V494.001H902.5H913.5C971 494.001 1008 473.5 1027 459.001C992.809 532.415 964.75 562 902.5 562.001C840.25 562.001 699 562.001 699 562.001Z" fill="#AD7727"/>
<path d="M865 288C865.5 288.5 880.748 204.703 865 182C849.252 159.298 807.803 162.619 801.5 198.5C795.197 234.382 864.5 287.5 865 288Z" fill="#AD7727"/>
<path d="M865.011 288C864.512 288.5 849.263 204.703 865.011 182C880.76 159.298 922.208 162.619 928.512 198.5C934.815 234.382 865.511 287.5 865.011 288Z" fill="#AD7727"/>
<path d="M506.567 258.288L667.067 378.968L666.942 449.108L506.564 322.07L346.188 449.108L346.062 378.968L506.565 258.285L506.567 258.288Z" fill="#21262B"/>
<path d="M414 356.553L346 407.683L346.125 477.823L414 424.058V562H346V62H414V356.553Z" fill="#21262B"/>
<path d="M667 562H599V424.054L666.88 477.823L667 410.422V562ZM667 407.679L599 356.55V62H667V407.679Z" fill="#21262B"/>
<rect x="471" y="409" width="29.5" height="30" fill="#21262B"/>
<rect x="510.5" y="409" width="29.5" height="30" fill="#21262B"/>
<rect x="510.5" y="449" width="29.5" height="30" fill="#21262B"/>
<rect x="471" y="449" width="29.5" height="30" fill="#21262B"/>
<path d="M498.999 213L500.499 144.5H511.499L512.999 213C513.472 220.222 517.5 224 530.5 217.5L507 231.5C507 231.5 480.499 218.5 480.999 217.5C481.499 216.5 498.499 227 498.999 213Z" fill="#21262B"/>
<rect x="484" y="165" width="9" height="45" transform="rotate(-90 484 165)" fill="#21262B"/>
<path d="M543 204L538 201C544.286 195.985 548.596 193.018 556.5 186C558.544 196.993 558.214 203.119 554 214L550 209C541.463 219.653 537 226 525.5 231.5C514 237 512.523 237.559 506 244C500.566 237.489 499 237 486.5 231.5C474 226 470.289 219.137 462.5 209L458.5 214C455.178 203.683 454.805 197.565 456.5 186C463.243 192.791 467.05 196.125 473.5 201L469.5 204C476.191 213.599 483.706 218.083 491 220.177L506 222C511.483 222.057 516.457 222.526 522 220.733C527.917 218.819 534.481 214.327 543 204Z" fill="#21262B"/>
<circle cx="507" cy="134" r="12" stroke="#21262B" stroke-width="6"/>
<path d="M1095.18 281V187.91H1155.73V202.046H1112.05V227.319H1152.59V241.455H1112.05V266.864H1156.09V281H1095.18ZM1277.59 187.91V281H1262.59L1218.73 217.591H1217.96V281H1201.09V187.91H1216.18L1260 251.364H1260.82V187.91H1277.59ZM1320.04 202.046V187.91H1394.31V202.046H1365.54V281H1348.81V202.046H1320.04ZM1436.79 281V187.91H1497.33V202.046H1453.65V227.319H1494.2V241.455H1453.65V266.864H1497.7V281H1436.79ZM1542.7 281V187.91H1577.61C1584.76 187.91 1590.76 189.152 1595.61 191.637C1600.48 194.122 1604.17 197.607 1606.65 202.091C1609.17 206.546 1610.42 211.743 1610.42 217.682C1610.42 223.652 1609.15 228.834 1606.61 233.228C1604.09 237.591 1600.38 240.97 1595.47 243.364C1590.56 245.728 1584.53 246.91 1577.38 246.91H1552.52V232.91H1575.11C1579.29 232.91 1582.71 232.334 1585.38 231.182C1588.05 230 1590.02 228.288 1591.29 226.046C1592.59 223.773 1593.24 220.985 1593.24 217.682C1593.24 214.379 1592.59 211.561 1591.29 209.228C1589.98 206.864 1588 205.076 1585.33 203.864C1582.67 202.622 1579.23 202 1575.02 202H1559.56V281H1542.7ZM1590.79 238.819L1613.83 281H1595.02L1572.38 238.819H1590.79ZM1654.11 281V187.91H1689.02C1696.17 187.91 1702.17 189.243 1707.02 191.91C1711.89 194.576 1715.58 198.243 1718.06 202.91C1720.58 207.546 1721.83 212.819 1721.83 218.728C1721.83 224.697 1720.58 230 1718.06 234.637C1715.55 239.273 1711.83 242.925 1706.92 245.591C1702.02 248.228 1695.97 249.546 1688.79 249.546H1665.65V235.682H1686.52C1690.7 235.682 1694.12 234.955 1696.79 233.5C1699.46 232.046 1701.42 230.046 1702.7 227.5C1704 224.955 1704.65 222.031 1704.65 218.728C1704.65 215.425 1704 212.516 1702.7 210C1701.42 207.485 1699.44 205.531 1696.74 204.137C1694.08 202.713 1690.64 202 1686.42 202H1670.97V281H1654.11ZM1764.64 281V187.91H1799.55C1806.7 187.91 1812.7 189.152 1817.55 191.637C1822.43 194.122 1826.11 197.607 1828.6 202.091C1831.11 206.546 1832.37 211.743 1832.37 217.682C1832.37 223.652 1831.1 228.834 1828.55 233.228C1826.04 237.591 1822.32 240.97 1817.41 243.364C1812.51 245.728 1806.48 246.91 1799.32 246.91H1774.46V232.91H1797.05C1801.23 232.91 1804.66 232.334 1807.32 231.182C1809.99 230 1811.96 228.288 1813.23 226.046C1814.54 223.773 1815.19 220.985 1815.19 217.682C1815.19 214.379 1814.54 211.561 1813.23 209.228C1811.93 206.864 1809.94 205.076 1807.28 203.864C1804.61 202.622 1801.17 202 1796.96 202H1781.51V281H1764.64ZM1812.73 238.819L1835.78 281H1816.96L1794.32 238.819H1812.73ZM1892.92 187.91V281H1876.05V187.91H1892.92ZM1989.93 213.5C1989.5 209.531 1987.72 206.44 1984.56 204.228C1981.44 202.016 1977.38 200.91 1972.38 200.91C1968.87 200.91 1965.85 201.44 1963.34 202.5C1960.82 203.561 1958.9 205 1957.56 206.819C1956.23 208.637 1955.55 210.713 1955.52 213.046C1955.52 214.985 1955.96 216.667 1956.84 218.091C1957.75 219.516 1958.97 220.728 1960.52 221.728C1962.06 222.697 1963.78 223.516 1965.66 224.182C1967.53 224.849 1969.43 225.41 1971.34 225.864L1980.06 228.046C1983.58 228.864 1986.96 229.97 1990.2 231.364C1993.47 232.758 1996.4 234.516 1998.97 236.637C2001.58 238.758 2003.64 241.319 2005.16 244.319C2006.67 247.319 2007.43 250.834 2007.43 254.864C2007.43 260.319 2006.03 265.122 2003.25 269.273C2000.46 273.394 1996.43 276.622 1991.16 278.955C1985.91 281.258 1979.56 282.41 1972.11 282.41C1964.87 282.41 1958.58 281.288 1953.25 279.046C1947.94 276.804 1943.79 273.531 1940.79 269.228C1937.82 264.925 1936.22 259.682 1935.97 253.5H1952.56C1952.81 256.743 1953.81 259.44 1955.56 261.591C1957.32 263.743 1959.61 265.349 1962.43 266.41C1965.28 267.47 1968.46 268 1971.97 268C1975.64 268 1978.85 267.455 1981.61 266.364C1984.4 265.243 1986.58 263.697 1988.16 261.728C1989.73 259.728 1990.53 257.394 1990.56 254.728C1990.53 252.304 1989.82 250.304 1988.43 248.728C1987.03 247.122 1985.08 245.788 1982.56 244.728C1980.08 243.637 1977.17 242.667 1973.84 241.819L1963.25 239.091C1955.58 237.122 1949.52 234.137 1945.06 230.137C1940.64 226.107 1938.43 220.758 1938.43 214.091C1938.43 208.607 1939.91 203.804 1942.88 199.682C1945.88 195.561 1949.96 192.364 1955.11 190.091C1960.26 187.788 1966.09 186.637 1972.61 186.637C1979.22 186.637 1985 187.788 1989.97 190.091C1994.97 192.364 1998.9 195.531 2001.75 199.591C2004.59 203.622 2006.06 208.258 2006.16 213.5H1989.93ZM2050.62 281V187.91H2111.17V202.046H2067.49V227.319H2108.03V241.455H2067.49V266.864H2111.53V281H2050.62ZM2207.12 213.5C2206.7 209.531 2204.91 206.44 2201.76 204.228C2198.64 202.016 2194.58 200.91 2189.58 200.91C2186.06 200.91 2183.05 201.44 2180.53 202.5C2178.02 203.561 2176.09 205 2174.76 206.819C2173.43 208.637 2172.74 210.713 2172.71 213.046C2172.71 214.985 2173.15 216.667 2174.03 218.091C2174.94 219.516 2176.17 220.728 2177.71 221.728C2179.26 222.697 2180.97 223.516 2182.85 224.182C2184.73 224.849 2186.62 225.41 2188.53 225.864L2197.26 228.046C2200.77 228.864 2204.15 229.97 2207.4 231.364C2210.67 232.758 2213.59 234.516 2216.17 236.637C2218.77 238.758 2220.83 241.319 2222.35 244.319C2223.87 247.319 2224.62 250.834 2224.62 254.864C2224.62 260.319 2223.23 265.122 2220.44 269.273C2217.65 273.394 2213.62 276.622 2208.35 278.955C2203.11 281.258 2196.76 282.41 2189.3 282.41C2182.06 282.41 2175.77 281.288 2170.44 279.046C2165.14 276.804 2160.99 273.531 2157.99 269.228C2155.02 264.925 2153.41 259.682 2153.17 253.5H2169.76C2170 256.743 2171 259.44 2172.76 261.591C2174.52 263.743 2176.8 265.349 2179.62 266.41C2182.47 267.47 2185.65 268 2189.17 268C2192.83 268 2196.05 267.455 2198.8 266.364C2201.59 265.243 2203.77 263.697 2205.35 261.728C2206.93 259.728 2207.73 257.394 2207.76 254.728C2207.73 252.304 2207.02 250.304 2205.62 248.728C2204.23 247.122 2202.27 245.788 2199.76 244.728C2197.27 243.637 2194.37 242.667 2191.03 241.819L2180.44 239.091C2172.77 237.122 2166.71 234.137 2162.26 230.137C2157.83 226.107 2155.62 220.758 2155.62 214.091C2155.62 208.607 2157.11 203.804 2160.08 199.682C2163.08 195.561 2167.15 192.364 2172.3 190.091C2177.46 187.788 2183.29 186.637 2189.8 186.637C2196.41 186.637 2202.2 187.788 2207.17 190.091C2212.17 192.364 2216.09 195.531 2218.94 199.591C2221.79 203.622 2223.26 208.258 2223.35 213.5H2207.12ZM1157.55 372.637C1156.79 370.182 1155.74 367.985 1154.41 366.046C1153.11 364.076 1151.53 362.394 1149.68 361C1147.86 359.607 1145.77 358.561 1143.41 357.864C1141.05 357.137 1138.47 356.773 1135.68 356.773C1130.68 356.773 1126.23 358.031 1122.32 360.546C1118.41 363.061 1115.33 366.758 1113.09 371.637C1110.88 376.485 1109.77 382.394 1109.77 389.364C1109.77 396.394 1110.88 402.349 1113.09 407.228C1115.3 412.107 1118.38 415.819 1122.32 418.364C1126.26 420.879 1130.83 422.137 1136.05 422.137C1140.77 422.137 1144.86 421.228 1148.32 419.41C1151.8 417.591 1154.48 415.016 1156.36 411.682C1158.24 408.319 1159.18 404.379 1159.18 399.864L1163 400.455H1137.73V387.273H1175.5V398.455C1175.5 406.425 1173.8 413.319 1170.41 419.137C1167.02 424.955 1162.35 429.44 1156.41 432.591C1150.47 435.713 1143.65 437.273 1135.95 437.273C1127.38 437.273 1119.85 435.349 1113.36 431.5C1106.91 427.622 1101.86 422.122 1098.23 415C1094.62 407.849 1092.82 399.364 1092.82 389.546C1092.82 382.031 1093.88 375.319 1096 369.41C1098.15 363.5 1101.15 358.485 1105 354.364C1108.85 350.213 1113.36 347.061 1118.55 344.91C1123.73 342.728 1129.36 341.637 1135.45 341.637C1140.61 341.637 1145.41 342.394 1149.86 343.91C1154.32 345.394 1158.27 347.516 1161.73 350.273C1165.21 353.031 1168.08 356.304 1170.32 360.091C1172.56 363.879 1174.03 368.061 1174.73 372.637H1157.55ZM1219.97 436V342.91H1254.88C1262.03 342.91 1268.03 344.152 1272.88 346.637C1277.75 349.122 1281.44 352.607 1283.92 357.091C1286.44 361.546 1287.69 366.743 1287.69 372.682C1287.69 378.652 1286.42 383.834 1283.88 388.228C1281.36 392.591 1277.65 395.97 1272.74 398.364C1267.83 400.728 1261.8 401.91 1254.65 401.91H1229.79V387.91H1252.38C1256.56 387.91 1259.98 387.334 1262.65 386.182C1265.32 385 1267.29 383.288 1268.56 381.046C1269.86 378.773 1270.51 375.985 1270.51 372.682C1270.51 369.379 1269.86 366.561 1268.56 364.228C1267.25 361.864 1265.27 360.076 1262.6 358.864C1259.94 357.622 1256.5 357 1252.29 357H1236.83V436H1219.97ZM1268.06 393.819L1291.1 436H1272.29L1249.65 393.819H1268.06ZM1414.56 389.455C1414.56 399.485 1412.68 408.076 1408.92 415.228C1405.2 422.349 1400.1 427.804 1393.65 431.591C1387.23 435.379 1379.94 437.273 1371.79 437.273C1363.63 437.273 1356.33 435.379 1349.88 431.591C1343.45 427.773 1338.36 422.304 1334.6 415.182C1330.88 408.031 1329.01 399.455 1329.01 389.455C1329.01 379.425 1330.88 370.849 1334.6 363.728C1338.36 356.576 1343.45 351.107 1349.88 347.319C1356.33 343.531 1363.63 341.637 1371.79 341.637C1379.94 341.637 1387.23 343.531 1393.65 347.319C1400.1 351.107 1405.2 356.576 1408.92 363.728C1412.68 370.849 1414.56 379.425 1414.56 389.455ZM1397.6 389.455C1397.6 382.394 1396.5 376.44 1394.29 371.591C1392.1 366.713 1389.07 363.031 1385.2 360.546C1381.32 358.031 1376.85 356.773 1371.79 356.773C1366.73 356.773 1362.26 358.031 1358.38 360.546C1354.5 363.031 1351.45 366.713 1349.24 371.591C1347.06 376.44 1345.97 382.394 1345.97 389.455C1345.97 396.516 1347.06 402.485 1349.24 407.364C1351.45 412.213 1354.5 415.894 1358.38 418.41C1362.26 420.894 1366.73 422.137 1371.79 422.137C1376.85 422.137 1381.32 420.894 1385.2 418.41C1389.07 415.894 1392.1 412.213 1394.29 407.364C1396.5 402.485 1397.6 396.516 1397.6 389.455ZM1517.34 342.91H1534.21V403.728C1534.21 410.394 1532.63 416.258 1529.48 421.319C1526.36 426.379 1521.96 430.334 1516.3 433.182C1510.63 436 1504.01 437.41 1496.43 437.41C1488.83 437.41 1482.19 436 1476.53 433.182C1470.86 430.334 1466.46 426.379 1463.34 421.319C1460.22 416.258 1458.66 410.394 1458.66 403.728V342.91H1475.53V402.319C1475.53 406.197 1476.37 409.652 1478.07 412.682C1479.8 415.713 1482.22 418.091 1485.34 419.819C1488.46 421.516 1492.16 422.364 1496.43 422.364C1500.71 422.364 1504.4 421.516 1507.53 419.819C1510.68 418.091 1513.1 415.713 1514.8 412.682C1516.5 409.652 1517.34 406.197 1517.34 402.319V342.91ZM1580.7 436V342.91H1615.61C1622.76 342.91 1628.76 344.243 1633.61 346.91C1638.48 349.576 1642.17 353.243 1644.65 357.91C1647.17 362.546 1648.42 367.819 1648.42 373.728C1648.42 379.697 1647.17 385 1644.65 389.637C1642.14 394.273 1638.42 397.925 1633.52 400.591C1628.61 403.228 1622.56 404.546 1615.38 404.546H1592.24V390.682H1613.11C1617.29 390.682 1620.71 389.955 1623.38 388.5C1626.05 387.046 1628.02 385.046 1629.29 382.5C1630.59 379.955 1631.24 377.031 1631.24 373.728C1631.24 370.425 1630.59 367.516 1629.29 365C1628.02 362.485 1626.03 360.531 1623.33 359.137C1620.67 357.713 1617.23 357 1613.02 357H1597.56V436H1580.7Z" fill="#21262B"/>
</svg>
